<?xml version="1.0" standalone="no"?>
<!DOCTYPE svg PUBLIC "-//W3C//DTD SVG 20010904//EN"
 "http://www.w3.org/TR/2001/REC-SVG-20010904/DTD/svg10.dtd">
<svg version="1.0" xmlns="http://www.w3.org/2000/svg"
 width="512.000000pt" height="512.000000pt" viewBox="0 0 512.000000 512.000000"
 preserveAspectRatio="xMidYMid meet">
<metadata>
Created by potrace 1.14, written by Peter Selinger 2001-2017
</metadata>
<g transform="translate(0.000000,512.000000) scale(0.100000,-0.100000)"
fill="#000000" stroke="none">
<path d="M2320 5103 c-610 -63 -1144 -315 -1570 -742 -219 -220 -354 -409
-491 -686 -119 -242 -196 -496 -241 -790 -18 -121 -18 -539 0 -660 44 -293
121 -546 242 -790 135 -276 271 -467 490 -685 420 -422 945 -674 1535 -740
134 -15 432 -12 579 5 922 108 1721 724 2071 1596 122 303 178 599 178 944 0
345 -56 641 -178 944 -353 879 -1145 1486 -2082 1596 -115 14 -434 18 -533 8z
m49 -942 c74 -23 148 -69 195 -122 l36 -39 0 -1446 0 -1445 -47 -47 c-140
-138 -348 -170 -527 -80 -139 70 -220 195 -238 367 -4 33 -32 50 -56 33 -9 -7
-42 -25 -72 -39 -152 -74 -340 7 -387 166 -19 65 -9 138 27 196 20 32 20 32
58 19 67 -24 122 -14 122 22 0 21 -30 44 -58 44 -75 1 -179 77 -221 162 -38
75 -42 167 -11 236 l19 42 50 -50 c53 -53 84 -62 101 -31 14 27 16 24 -45 86
-125 129 -165 308 -104 471 25 66 94 159 149 198 23 17 40 38 40 49 0 11 -18
37 -40 58 -174 169 -74 450 173 485 32 4 72 0 123 -11 70 -17 76 -17 92 -1 13
13 14 20 6 34 -13 21 -88 51 -128 51 -28 1 -29 2 -22 47 15 115 88 214 198
270 73 38 206 45 290 16 46 -17 60 -18 73 -8 29 21 14 49 -40 76 -43 22 -63
25 -152 25 -57 0 -103 2 -103 5 0 11 96 98 133 120 101 60 251 77 366 41z
m1096 -155 c115 -53 171 -183 131 -304 -32 -95 -118 -160 -226 -169 l-57 -5
-48 -137 c-85 -239 -106 -291 -128 -306 -17 -12 -62 -15 -239 -15 l-218 0 0
40 0 40 206 2 206 3 74 205 c71 199 72 204 53 218 -131 92 -140 295 -18 394
76 62 178 75 264 34z m329 -1220 c47 -19 104 -73 129 -120 30 -57 30 -165 0
-221 -44 -84 -129 -134 -223 -135 -103 0 -204 71 -232 162 l-11 38 -386 2
-386 3 0 40 0 40 388 3 c339 2 387 4 387 18 0 48 79 141 144 170 41 17 148 18
190 0z m-651 -768 c14 -14 52 -106 97 -230 l74 -208 41 0 c185 0 309 -190 231
-355 -97 -206 -390 -188 -462 28 -34 102 13 236 99 283 16 9 12 26 -56 215
l-74 204 -207 3 -206 2 0 40 0 40 220 0 c216 0 221 -1 243 -22z"/>
<path d="M2086 3666 c-67 -28 -127 -82 -159 -141 -45 -85 -20 -254 39 -263 37
-5 49 22 30 68 -33 84 -16 161 51 221 51 46 101 63 180 63 50 0 74 -7 122 -32
61 -32 85 -33 95 -6 10 27 -12 52 -71 81 -83 40 -203 44 -287 9z"/>
<path d="M1737 2893 c-33 -73 -29 -154 10 -227 29 -53 31 -59 18 -89 -41 -99
-38 -223 10 -317 36 -71 58 -94 83 -86 35 11 36 40 3 91 -50 79 -60 166 -30
262 l10 31 47 -21 c38 -18 65 -22 147 -22 86 0 106 3 145 24 79 41 99 73 65
101 -13 11 -27 7 -81 -20 -86 -44 -162 -46 -246 -8 -103 48 -146 138 -113 243
14 44 15 58 5 70 -24 29 -50 18 -73 -32z"/>
<path d="M1940 2001 c-130 -42 -219 -152 -220 -271 0 -99 61 -182 100 -136 10
13 9 23 -4 56 -58 145 49 281 221 283 50 1 73 -5 129 -33 l67 -33 19 22 c25
32 11 53 -59 88 -48 23 -73 28 -143 30 -47 1 -96 -1 -110 -6z"/>
<path d="M1995 1626 c-35 -53 -45 -144 -23 -207 57 -168 272 -252 445 -175 73
33 97 56 89 84 -11 33 -32 33 -93 1 -77 -39 -135 -46 -207 -25 -65 19 -132 73
-153 123 -17 42 -16 111 2 143 19 32 18 45 -1 64 -22 22 -41 20 -59 -8z"/>
</g>
</svg>
